<?xml version="1.0" encoding="utf-8"?>
<!-- Generator: Adobe Illustrator 16.0.4, SVG Export Plug-In . SVG Version: 6.00 Build 0)  -->
<!DOCTYPE svg PUBLIC "-//W3C//DTD SVG 1.1//EN" "http://www.w3.org/Graphics/SVG/1.1/DTD/svg11.dtd">
<svg version="1.1" id="Layer_1" xmlns="http://www.w3.org/2000/svg" xmlns:xlink="http://www.w3.org/1999/xlink" x="0px" y="0px"
	 width="827.312px" height="827.312px" viewBox="0 0 827.312 827.312" enable-background="new 0 0 827.312 827.312"
	 xml:space="preserve">
<rect fill="#FAAE00" width="827.312" height="827.312"/>
<g>
	<path fill="#FFFFFF" d="M549.186,598.179c0,6.536-4.157,11.57-12.459,15.13c-3.561,1.196-6.537,1.78-8.9,1.78
		c-6.535,0-11.57-3.852-15.129-11.57l-63.191-148.63c-1.779,0.598-4.756,0.891-8.9,0.891h-280.35c-2.975,0-5.047-0.293-6.23-0.891
		l-64.078,148.63c-3.561,7.719-8.9,11.57-16.021,11.57c-1.195,0-4.158-0.584-8.9-1.78c-7.717-3.56-11.57-8.899-11.57-16.02
		c0-1.183,0.586-4.145,1.781-8.9l223.391-522.43c3.559-9.484,10.68-14.24,21.359-14.24h2.67c10.082,0,17.201,4.756,21.359,14.24
		l222.5,522.43C548.297,591.949,549.186,595.217,549.186,598.179z M170.047,418.398h263.439l-130.83-307.939L170.047,418.398z"/>
</g>
<g>
	<path fill="#FFFFFF" d="M62.166,768.837c-4.92-3.934-7.832-9.988-8.74-18.16c-0.152-1.965,0.264-3.519,1.248-4.653
		s2.459-1.703,4.428-1.703c1.816,0,3.213,0.494,4.199,1.477c0.982,0.985,1.625,2.461,1.93,4.426
		c0.604,4.693,2.306,7.984,5.107,9.875c2.799,1.894,7.15,2.838,13.053,2.838h37.229c7.111,0,11.99-1.324,14.641-3.973
		c2.646-2.646,3.973-7.527,3.973-14.643c0-7.111-1.326-11.992-3.973-14.641c-2.65-2.646-7.529-3.973-14.641-3.973H84.072
		c-9.988,0-17.366-2.345-22.133-7.037c-4.768-4.689-7.15-11.953-7.15-21.792c0-9.988,2.383-17.366,7.15-22.133
		c4.767-4.767,12.145-7.15,22.133-7.15h35.411c17.252,0,26.786,7.569,28.603,22.7c0.148,1.969-0.267,3.482-1.25,4.54
		c-0.984,1.061-2.461,1.589-4.426,1.589c-1.816,0-3.217-0.454-4.199-1.361c-0.986-0.908-1.703-2.346-2.156-4.313
		c-0.607-4.235-2.156-7.187-4.654-8.853c-2.496-1.664-6.469-2.498-11.917-2.498H84.072c-6.662,0-11.237,1.249-13.734,3.746
		c-2.498,2.496-3.746,7.076-3.746,13.733c0,6.509,1.248,10.974,3.746,13.394c2.497,2.422,7.072,3.631,13.734,3.631h36.547
		c10.441,0,18.121,2.498,23.039,7.492c4.916,4.993,7.379,12.637,7.379,22.926c0,10.442-2.463,18.125-7.379,23.041
		c-4.918,4.92-12.598,7.377-23.039,7.377H83.391C74.158,774.738,67.082,772.773,62.166,768.837z"/>
	<path fill="#FFFFFF" d="M272.254,831.312v-56.347h-47.67c-14.074,0-24.402-3.292-30.985-9.874
		c-6.583-6.584-9.874-16.912-9.874-30.986v-25.424c0-14.223,3.252-24.59,9.76-31.099c6.506-6.505,16.873-9.761,31.1-9.761h8.625
		c19.371,0,32.383,5.299,39.045,15.89v-9.988c0-3.933,1.965-5.901,5.902-5.901c3.934,0,5.902,1.969,5.902,5.901v157.589
		 M272.254,763.162v-61.063c0-7.264-3.482-12.825-10.441-16.685c-6.963-3.859-16.497-5.788-28.604-5.788h-8.625
		c-10.896,0-18.465,2.121-22.7,6.356c-4.238,4.238-6.356,11.803-6.356,22.699v25.424c0,10.896,2.118,18.465,6.356,22.7
		c4.235,4.239,11.804,6.356,22.7,6.356H272.254z"/>
	<path fill="#FFFFFF" d="M420.255,673.724v95.341c0,3.937-1.968,5.901-5.901,5.901c-3.938,0-5.902-1.965-5.902-5.901v-10.896
		c-7.264,11.201-20.281,16.798-39.043,16.798h-6.357c-14.227,0-24.594-3.292-31.099-9.874c-6.509-6.584-9.761-16.912-9.761-30.986
		v-60.382c0-3.933,1.965-5.901,5.902-5.901c3.932,0,5.901,1.969,5.901,5.901v60.382c0,10.896,2.117,18.465,6.356,22.7
		c4.234,4.239,11.805,6.356,22.699,6.356h6.357c11.951,0,21.259-1.891,27.92-5.676c6.657-3.78,10.289-9.381,10.896-16.797
		c0-0.756,0.074-1.285,0.227-1.59v-65.376c0-3.933,1.965-5.901,5.902-5.901C418.287,667.822,420.255,669.791,420.255,673.724z"/>
	<path fill="#FFFFFF" d="M545.785,677.583c6.504,6.509,9.761,16.876,9.761,31.099v60.383c0,3.937-1.969,5.901-5.902,5.901
		c-3.937,0-5.901-1.965-5.901-5.901v-11.123c-3.633,5.6-8.74,9.838-15.322,12.711c-6.584,2.877-14.494,4.313-23.723,4.313h-12.711
		c-11.656,0-20.242-2.724-25.766-8.172c-5.525-5.448-8.285-14.074-8.285-25.878c0-11.805,2.76-20.466,8.285-25.992
		c5.523-5.521,14.109-8.285,25.766-8.285h51.756c-0.306-9.988-2.576-16.986-6.811-20.998c-4.238-4.008-11.654-6.015-22.246-6.015
		H501.52c-9.687,0-16.723,1.021-21.111,3.064c-4.391,2.043-7.115,5.562-8.172,10.556c-0.605,1.969-1.361,3.369-2.27,4.199
		c-0.908,0.834-2.195,1.248-3.859,1.248c-2.121,0-3.671-0.527-4.653-1.588c-0.985-1.058-1.401-2.572-1.249-4.541
		c1.058-8.625,4.955-14.904,11.691-18.841c6.732-3.933,16.606-5.901,29.623-5.901h13.166
		C528.908,667.822,539.275,671.078,545.785,677.583z M543.742,738.646v-20.203h-51.756c-8.479,0-14.302,1.627-17.479,4.88
		c-3.179,3.257-4.767,9.119-4.767,17.593c0,8.324,1.625,14.113,4.88,17.365c3.253,3.256,9.041,4.881,17.366,4.881h12.711
		c23.456,0,36.32-7.566,38.59-22.7L543.742,738.646z"/>
	<path fill="#FFFFFF" d="M657.24,673.724c0,3.937-1.969,5.902-5.902,5.902c-13.621,0-24.141,3.104-31.555,9.307
		c-7.416,6.207-11.427,15.06-12.029,26.56c0,0.759-0.078,1.287-0.229,1.589v51.983c0,3.937-1.969,5.901-5.9,5.901
		c-3.938,0-5.902-1.965-5.902-5.901v-95.341c0-3.933,1.965-5.901,5.902-5.901c3.932,0,5.9,1.969,5.9,5.901v18.16
		c3.934-7.718,9.648-13.655,17.139-17.819c7.492-4.16,16.381-6.242,26.674-6.242C655.271,667.822,657.24,669.791,657.24,673.724z"/>
	<path fill="#FFFFFF" d="M685.388,725.934v8.399c0,10.747,2.157,18.237,6.47,22.473c4.312,4.239,11.84,6.356,22.586,6.356h18.613
		c9.684,0,16.686-1.249,20.998-3.746c4.312-2.496,6.846-6.771,7.605-12.825c0.756-3.78,2.799-5.675,6.129-5.675
		c2.117,0,3.666,0.531,4.652,1.589c0.982,1.061,1.324,2.575,1.022,4.54c-1.062,9.533-4.88,16.57-11.464,21.111
		c-6.582,4.539-16.23,6.81-28.943,6.81h-18.613c-14.074,0-24.402-3.253-30.984-9.761c-6.584-6.506-9.875-16.799-9.875-30.872
		v-25.651c0-14.223,3.291-24.629,9.875-31.213c6.582-6.582,16.91-9.796,30.984-9.646h18.613c14.075,0,24.404,3.291,30.986,9.874
		c6.584,6.583,9.875,16.911,9.875,30.985v11.35c0,3.938-1.969,5.902-5.902,5.902H685.388z M685.388,714.13h76.726v-5.448
		c0-10.896-2.121-18.461-6.355-22.699c-4.238-4.235-11.805-6.356-22.701-6.356h-18.613c-10.896-0.149-18.465,1.894-22.699,6.129
		c-4.238,4.238-6.356,11.882-6.356,22.927V714.13z"/>
</g>
</svg>
